<?xml version="1.0" encoding="iso-8859-1"?>
<!-- Generator: Adobe Illustrator 19.0.0, SVG Export Plug-In . SVG Version: 6.00 Build 0)  -->
<svg version="1.1" id="Capa_1" xmlns="http://www.w3.org/2000/svg" xmlns:xlink="http://www.w3.org/1999/xlink" x="0px" y="0px"
	 viewBox="0 0 511.537 511.537" style="enable-background:new 0 0 511.537 511.537;" xml:space="preserve">
<g transform="matrix(1.25 0 0 -1.25 0 45)">
	<g>
		<g>
			<path style="fill:#77B255;" d="M370.174-178.223c-23.814,21.026-76.072,37.137-115.803,43.691
				c39.731,6.565,91.989,22.676,115.803,43.691c22.915,20.207,33.712,33.53,24.36,53.714c-6.451,13.881-32.484,15.178-47.4,28.342
				c-14.928,13.175-16.43,36.147-32.165,41.813c-22.858,8.26-37.956-1.286-60.826-21.481
				C230.318-9.468,212.068-55.57,204.616-90.637c-7.43,35.066-25.691,81.18-49.505,102.184
				c-22.915,20.207-38.013,29.742-60.882,21.481C78.493,27.339,77.025,4.379,62.109-8.785C47.181-21.96,21.115-23.28,14.698-37.161
				c-9.364-20.184,1.468-33.485,24.348-53.68c23.825-21.015,76.095-37.126,115.837-43.691
				c-39.743-6.554-92.012-22.676-115.837-43.691c-22.903-20.196-33.712-33.508-24.337-53.714c6.44-13.858,32.472-15.178,47.4-28.331
				c14.916-13.175,16.43-36.159,32.154-41.825c22.869-8.26,37.968,1.32,60.848,21.493c18.785,16.577,34.099,48.788,43.395,78.882
				c-2.981-51.61,6.007-120.502,43.839-162.27c15.28-16.885,27.386-6.269,32.108-2.128c4.733,4.164,18.25,16.088,2.105,32.119
				c-44.487,44.169-59.904,90.078-64.023,126.737c9.409-28.422,23.962-57.765,41.609-73.341
				c22.892-20.196,37.99-29.753,60.871-21.493c15.724,5.689,17.203,28.672,32.119,41.825c14.928,13.175,40.983,14.495,47.4,28.376
				C403.886-211.708,393.066-198.396,370.174-178.223"/>
		</g>
	</g>
</g>
<g>
</g>
<g>
</g>
<g>
</g>
<g>
</g>
<g>
</g>
<g>
</g>
<g>
</g>
<g>
</g>
<g>
</g>
<g>
</g>
<g>
</g>
<g>
</g>
<g>
</g>
<g>
</g>
<g>
</g>
</svg>
